<svg width="39" height="39" viewBox="0 0 39 39" fill="none" xmlns="http://www.w3.org/2000/svg">
<circle cx="19.3277" cy="19.9546" r="18.9849" fill="white"/>
<path d="M31.4792 17.649C31.4792 10.9382 26.039 5.49804 19.3282 5.49804C12.6174 5.49804 7.17725 10.9382 7.17725 17.649C7.17725 23.7139 11.6207 28.7408 17.4296 29.6523V21.1614H14.3444V17.649H17.4296V14.972C17.4296 11.9267 19.2437 10.2445 22.0192 10.2445C23.3486 10.2445 24.7392 10.4818 24.7392 10.4818V13.4721H23.207C21.6975 13.4721 21.2268 14.4088 21.2268 15.3697V17.649H24.5968L24.0581 21.1614H21.2268V29.6523C27.0357 28.7408 31.4792 23.7139 31.4792 17.649Z" fill="white"/>
<path d="M24.0579 21.1617L24.5966 17.6493H21.2266V15.37C21.2266 14.4091 21.6973 13.4724 23.2068 13.4724H24.739V10.4822C24.739 10.4822 23.3485 10.2448 22.019 10.2448C19.2435 10.2448 17.4294 11.927 17.4294 14.9723V17.6493H14.3442V21.1617H17.4294V29.6527C18.0481 29.7497 18.6821 29.8003 19.328 29.8003C19.9739 29.8003 20.608 29.7497 21.2266 29.6527V21.1617H24.0579Z" fill="#FFC72C"/>
</svg>
