<svg width="39" height="39" viewBox="0 0 39 39" fill="none" xmlns="http://www.w3.org/2000/svg">
<circle cx="19.3277" cy="19.9246" r="18.9849" fill="white"/>
<path d="M19.3293 8.60962C16.2566 8.60962 15.871 8.62306 14.6641 8.67798C13.4596 8.73314 12.6374 8.92383 11.918 9.20363C11.1739 9.49263 10.5427 9.87921 9.91377 10.5083C9.28442 11.1373 8.89785 11.7685 8.60792 12.5124C8.32742 13.2321 8.1365 14.0545 8.08228 15.2586C8.0283 16.4655 8.01416 16.8514 8.01416 19.9242C8.01416 22.9971 8.02783 23.3815 8.08252 24.5884C8.13791 25.7929 8.3286 26.6151 8.60816 27.3345C8.89738 28.0787 9.28395 28.71 9.91307 29.3389C10.5417 29.9683 11.173 30.3558 11.9166 30.6448C12.6365 30.9246 13.4589 31.1153 14.6632 31.1704C15.87 31.2254 16.2554 31.2388 19.3279 31.2388C22.4009 31.2388 22.7854 31.2254 23.9922 31.1704C25.1967 31.1153 26.0198 30.9246 26.7397 30.6448C27.4836 30.3558 28.1139 29.9683 28.7426 29.3389C29.3719 28.71 29.7585 28.0787 30.0484 27.3348C30.3265 26.6151 30.5175 25.7927 30.574 24.5886C30.6283 23.3818 30.6424 22.9971 30.6424 19.9242C30.6424 16.8514 30.6283 16.4657 30.574 15.2588C30.5175 14.0543 30.3265 13.2321 30.0484 12.5127C29.7585 11.7685 29.3719 11.1373 28.7426 10.5083C28.1132 9.87897 27.4838 9.49239 26.739 9.20363C26.0177 8.92383 25.1951 8.73314 23.9906 8.67798C22.7837 8.62306 22.3995 8.60962 19.3258 8.60962H19.3293ZM18.3144 10.6486C18.6156 10.6481 18.9517 10.6486 19.3293 10.6486C22.3502 10.6486 22.7083 10.6594 23.9012 10.7137C25.0044 10.7641 25.6031 10.9484 26.0019 11.1033C26.5299 11.3084 26.9063 11.5535 27.3021 11.9495C27.6981 12.3456 27.9433 12.7227 28.1488 13.2507C28.3037 13.6491 28.4882 14.2478 28.5384 15.351C28.5926 16.5437 28.6044 16.902 28.6044 19.9216C28.6044 22.9412 28.5926 23.2995 28.5384 24.4922C28.488 25.5954 28.3037 26.1941 28.1488 26.5925C27.9437 27.1205 27.6981 27.4965 27.3021 27.8923C26.9061 28.2883 26.5301 28.5334 26.0019 28.7385C25.6036 28.8941 25.0044 29.0779 23.9012 29.1284C22.7085 29.1826 22.3502 29.1944 19.3293 29.1944C16.3082 29.1944 15.9502 29.1826 14.7574 29.1284C13.6543 29.0775 13.0556 28.8931 12.6565 28.7383C12.1285 28.5332 11.7514 28.288 11.3554 27.892C10.9594 27.496 10.7143 27.1198 10.5087 26.5916C10.3539 26.1932 10.1693 25.5945 10.1191 24.4913C10.0649 23.2985 10.054 22.9402 10.054 19.9188C10.054 16.8973 10.0649 16.5409 10.1191 15.3482C10.1695 14.245 10.3539 13.6463 10.5087 13.2474C10.7138 12.7194 10.9594 12.3423 11.3554 11.9462C11.7514 11.5502 12.1285 11.3051 12.6565 11.0995C13.0554 10.944 13.6543 10.7601 14.7574 10.7094C15.8012 10.6623 16.2057 10.6481 18.3144 10.6458V10.6486ZM25.3688 12.5273C24.6192 12.5273 24.0111 13.1347 24.0111 13.8846C24.0111 14.6342 24.6192 15.2423 25.3688 15.2423C26.1184 15.2423 26.7265 14.6342 26.7265 13.8846C26.7265 13.135 26.1184 12.5268 25.3688 12.5268V12.5273ZM19.3293 14.1137C16.1206 14.1137 13.519 16.7153 13.519 19.9242C13.519 23.1331 16.1206 25.7335 19.3293 25.7335C22.5381 25.7335 25.1387 23.1331 25.1387 19.9242C25.1387 16.7153 22.5379 14.1137 19.3291 14.1137H19.3293ZM19.3293 16.1527C21.4121 16.1527 23.1008 17.8411 23.1008 19.9242C23.1008 22.007 21.4121 23.6957 19.3293 23.6957C17.2463 23.6957 15.5579 22.007 15.5579 19.9242C15.5579 17.8411 17.2463 16.1527 19.3293 16.1527Z" fill="#FFC72C"/>
</svg>
