<svg width="39" height="38" viewBox="0 0 39 38" fill="none" xmlns="http://www.w3.org/2000/svg">
<circle cx="19.3277" cy="18.9849" r="18.9849" fill="white"/>
<path d="M29.4478 13.9495C29.2043 13.0527 28.4914 12.3456 27.5872 12.1042C25.9354 11.6558 19.3279 11.6558 19.3279 11.6558C19.3279 11.6558 12.7205 11.6558 11.0687 12.0869C10.1819 12.3284 9.45157 13.0527 9.20814 13.9495C8.77344 15.5879 8.77344 18.9853 8.77344 18.9853C8.77344 18.9853 8.77344 22.4 9.20814 24.0211C9.45157 24.9179 10.1645 25.625 11.0687 25.8665C12.7379 26.3149 19.3279 26.3149 19.3279 26.3149C19.3279 26.3149 25.9354 26.3149 27.5872 25.8837C28.4914 25.6423 29.2043 24.9352 29.4478 24.0384C29.8825 22.4 29.8825 19.0026 29.8825 19.0026C29.8825 19.0026 29.8998 15.5879 29.4478 13.9495Z" fill="#FFC72C"/>
<path d="M22.7182 18.9852L17.2236 15.8464V22.124L22.7182 18.9852Z" fill="white"/>
</svg>
