<svg width="119" height="43" viewBox="0 0 119 43" fill="none" xmlns="http://www.w3.org/2000/svg">
<g clip-path="url(#clip0_482_1783)">
<path d="M45.1523 15.609C45.1523 11.9612 47.9317 9.35249 51.6708 9.35249C53.7464 9.35249 55.4809 10.1122 56.6111 11.4953L54.8269 13.158C54.0237 12.2263 53.0072 11.739 51.8058 11.739C49.5596 11.739 47.9673 13.33 47.9673 15.609C47.9673 17.888 49.5596 19.479 51.8058 19.479C53.0072 19.479 54.0166 18.9917 54.8269 18.0457L56.6111 19.7083C55.4809 21.1058 53.7464 21.8727 51.6566 21.8727C47.9317 21.8727 45.1595 19.264 45.1595 15.6162L45.1523 15.609Z" fill="#96989B"/>
<path d="M64.0182 12.2192V14.706C63.7978 14.6917 63.6272 14.6702 63.4211 14.6702C61.9496 14.6702 60.9687 15.48 60.9687 17.2645V21.6577H58.2959V12.3553H60.8549V13.5808C61.5089 12.685 62.6036 12.212 64.0253 12.212L64.0182 12.2192Z" fill="#96989B"/>
<path d="M74.5173 17.7662H67.5369C67.7928 18.9272 68.7737 19.6367 70.1812 19.6367C71.1622 19.6367 71.8588 19.3428 72.4986 18.7408L73.9202 20.296C73.0601 21.285 71.7735 21.801 70.1101 21.801C66.9184 21.801 64.8428 19.78 64.8428 17.0137C64.8428 14.2473 66.954 12.2263 69.7618 12.2263C72.5696 12.2263 74.5671 14.061 74.5671 17.0495C74.5671 17.2573 74.5316 17.5512 74.5173 17.7733V17.7662ZM67.5013 16.1895H72.0436C71.8517 15.0142 70.9774 14.2545 69.776 14.2545C68.5747 14.2545 67.6861 14.9998 67.4942 16.1895H67.5013Z" fill="#96989B"/>
<path d="M84.2559 16.3543V21.6648H81.7537V20.5038C81.2562 21.3495 80.2965 21.801 78.9388 21.801C76.7778 21.801 75.4912 20.5898 75.4912 18.9845C75.4912 17.3792 76.6428 16.2038 79.4506 16.2038H81.576C81.576 15.0428 80.8936 14.3692 79.4506 14.3692C78.4696 14.3692 77.4602 14.6988 76.7921 15.2363L75.8324 13.3515C76.8418 12.6277 78.3346 12.2263 79.8131 12.2263C82.6281 12.2263 84.2559 13.5378 84.2559 16.3615V16.3543ZM81.5831 18.7265V17.7733H79.7492C78.4981 17.7733 78.1 18.2392 78.1 18.8627C78.1 19.5363 78.6687 19.9878 79.607 19.9878C80.4955 19.9878 81.2704 19.5722 81.576 18.7265H81.5831Z" fill="#96989B"/>
<path d="M92.438 21.2133C91.8907 21.6075 91.0803 21.801 90.2628 21.801C88.0877 21.801 86.8152 20.6758 86.8152 18.4613V14.6415H85.3936V12.5632H86.8152V10.2985H89.488V12.5632H91.784V14.6415H89.488V18.4255C89.488 19.221 89.9145 19.651 90.6396 19.651C91.0377 19.651 91.4286 19.5292 91.7201 19.307L92.438 21.2062V21.2133Z" fill="#96989B"/>
<path d="M96.8095 12.3553H94.1367V21.6577H96.8095V12.3553Z" fill="#96989B"/>
<path d="M108.453 12.3553L104.558 21.6577H101.8L97.9258 12.3553H100.684L103.243 18.6835L105.887 12.3553H108.46H108.453Z" fill="#96989B"/>
<path d="M118.284 17.7662H111.303C111.559 18.9272 112.54 19.6367 113.948 19.6367C114.929 19.6367 115.625 19.3428 116.265 18.7408L117.687 20.296C116.827 21.285 115.54 21.801 113.877 21.801C110.685 21.801 108.609 19.78 108.609 17.0137C108.609 14.2473 110.721 12.2263 113.528 12.2263C116.336 12.2263 118.334 14.061 118.334 17.0495C118.334 17.2573 118.298 17.5512 118.284 17.7733V17.7662ZM111.268 16.1895H115.81C115.618 15.0142 114.744 14.2545 113.543 14.2545C112.341 14.2545 111.453 14.9998 111.261 16.1895H111.268Z" fill="#96989B"/>
<path d="M45.8059 32.0565V25.2768H48.5853V31.949C48.5853 34.2495 49.5805 35.2027 51.2581 35.2027C52.9357 35.2027 53.9309 34.2495 53.9309 31.949V25.2768H56.6747V32.0565C56.6747 35.6183 54.6488 37.5892 51.2368 37.5892C47.8247 37.5892 45.7988 35.6183 45.7988 32.0565H45.8059Z" fill="#595A55"/>
<path d="M68.6666 32.0565V37.3813H65.9867V32.4722C65.9867 30.9672 65.2972 30.272 64.1172 30.272C64.0603 30.272 64.0105 30.272 63.9537 30.272C62.7523 30.3365 61.9064 31.1392 61.9064 32.7732V37.3742H59.2266V31.7627C59.2266 31.39 59.2621 31.0173 59.3545 30.659C59.5962 29.7273 60.0725 29.1038 60.698 28.6882C60.7264 28.6667 60.762 28.6452 60.7904 28.6237L60.8899 28.5663C60.8899 28.5663 60.9539 28.5305 60.9895 28.509C61.0676 28.466 61.153 28.423 61.2383 28.3872C61.4089 28.3083 61.5937 28.2438 61.7785 28.1937C62.4396 28.0002 63.1789 27.9357 63.9466 27.9357C64.1314 27.9357 64.3162 27.9357 64.501 27.95C66.008 28.0217 67.3515 28.4158 68.0837 29.6127C68.0979 29.6342 68.1121 29.6557 68.1263 29.6772C68.4675 30.2935 68.6595 31.0818 68.6595 32.0493L68.6666 32.0565Z" fill="#595A55"/>
<path d="M70.7568 25.2768C70.7568 24.4312 71.425 23.7718 72.4202 23.7718C73.4154 23.7718 74.0836 24.3953 74.0836 25.2267C74.0836 26.1225 73.4154 26.7818 72.4202 26.7818C71.425 26.7818 70.7568 26.1225 70.7568 25.2768Z" fill="#FFC72C"/>
<path d="M73.7568 28.079H71.084V37.3813H73.7568V28.079Z" fill="#595A55"/>
<path d="M85.4075 28.079L81.512 37.3813H78.754L74.8799 28.079H77.638L80.197 34.4072L82.8413 28.079H85.4146H85.4075Z" fill="#595A55"/>
<path d="M68.6669 32.6657V32.0565C68.6669 31.089 68.475 30.3007 68.1338 29.6843C68.539 30.3867 68.7451 31.347 68.6669 32.6657Z" fill="#5B5C56"/>
<path d="M9.9375 22.9692C9.9375 16.5622 14.7997 12.0257 21.4176 12.0257C25.2633 12.0257 28.3697 13.4375 30.3956 15.996L26.6352 19.4217C25.3202 17.8307 23.7136 16.9563 21.7162 16.9563C18.2899 16.9563 15.9015 19.3643 15.9015 22.9692C15.9015 26.574 18.2899 28.982 21.7162 28.982C23.7136 28.982 25.3273 28.1077 26.6352 26.5167L30.3956 29.9423C28.3697 32.5008 25.2633 33.9127 21.4176 33.9127C14.7997 33.9127 9.9375 29.369 9.9375 22.9692Z" fill="#FF9800"/>
<path d="M20.3869 43C14.8565 43 9.77398 40.9933 6.0776 37.3455C2.3741 33.6905 0.333984 28.6523 0.333984 23.1627C0.333984 17.673 2.3741 12.6348 6.0776 8.97983C9.77398 5.332 14.8494 3.32533 20.3869 3.32533C25.9243 3.32533 31.0424 5.332 34.7388 8.97983C38.4494 12.6348 40.4895 17.673 40.4895 23.1627C40.4895 26.3447 39.8213 29.3475 38.4992 32.078C38.2362 32.6298 37.6959 32.9667 37.0846 32.9667C36.6936 32.9667 36.324 32.8233 36.0325 32.5582C35.5207 32.0923 35.3786 31.3255 35.6771 30.6948C36.786 28.3872 37.3476 25.8502 37.3476 23.1555C37.3476 13.5593 30.0543 6.31383 20.3798 6.31383C10.7052 6.31383 3.4688 13.5665 3.4688 23.1627C3.4688 32.7588 10.7407 40.0043 20.3869 40.0043C22.2066 40.0043 23.9766 39.7463 25.6471 39.2447C25.7893 39.2017 25.9315 39.1802 26.0807 39.1802C26.6565 39.1802 27.1754 39.5027 27.4313 40.0258C27.6233 40.4272 27.6375 40.893 27.4527 41.3015C27.275 41.71 26.9266 42.0182 26.493 42.1472C24.5453 42.7205 22.4839 43.0072 20.3798 43.0072L20.3869 43Z" fill="#FFC72C"/>
<path d="M36.4165 40.3412C35.2436 41.5595 33.502 42.398 32.0092 42.1543C31.732 42.1113 31.4619 42.0253 31.206 41.9035C30.68 41.71 30.2392 41.4592 29.8696 41.1582C26.5926 38.5495 29.0379 32.5582 32.8409 32.7732C32.9902 32.7803 33.1466 32.8018 33.2959 32.8305C33.8219 32.9308 34.3124 33.1602 34.7531 33.4612C34.8953 33.5543 35.0303 33.6547 35.1725 33.7622C37.1771 35.26 39.011 37.7253 36.4165 40.3412Z" fill="#FFC72C"/>
<path d="M1.4643 5.03817C1.00225 3.87717 0.952494 2.451 1.56382 1.505C1.67755 1.32583 1.81261 1.16817 1.97611 1.032C2.26045 0.731 2.56611 0.508834 2.87177 0.344C5.58719 -1.10367 8.86418 2.33633 7.59177 4.859C7.54201 4.95933 7.48515 5.05967 7.42117 5.15283C7.20081 5.4825 6.89514 5.7405 6.56816 5.9555C6.46153 6.02 6.3549 6.0845 6.24117 6.149C4.64177 7.06633 2.45237 7.57517 1.47141 5.031L1.4643 5.03817Z" fill="#FFC72C"/>
</g>
<defs>
<clipPath id="clip0_482_1783">
<rect width="118" height="43" fill="white" transform="translate(0.333984)"/>
</clipPath>
</defs>
</svg>
